<svg width="195" height="52" viewBox="0 0 195 52" fill="none" xmlns="http://www.w3.org/2000/svg">
<path d="M31.2606 23.3929C31.2828 21.7141 31.7395 20.068 32.5884 18.6079C33.4373 17.1477 34.6506 15.9209 36.1157 15.0415C35.185 13.7439 33.9572 12.6759 32.5298 11.9226C31.1024 11.1692 29.5148 10.7511 27.893 10.7016C24.4334 10.3471 21.0795 12.7227 19.3165 12.7227C17.5194 12.7227 14.8051 10.7368 11.8821 10.7955C9.99153 10.8551 8.14898 11.3919 6.53402 12.3535C4.91906 13.315 3.58676 14.6686 2.66694 16.2823C-1.31743 23.0173 1.65456 32.9154 5.47132 38.3595C7.38094 41.0253 9.61272 44.0031 12.533 43.8975C15.3907 43.7818 16.4579 42.1184 19.9073 42.1184C23.3248 42.1184 24.3261 43.8975 27.3056 43.8303C30.372 43.7818 32.304 41.1527 34.1466 38.4617C35.5187 36.5622 36.5745 34.4629 37.2749 32.2414C35.4934 31.5058 33.9731 30.2745 32.9036 28.7009C31.8341 27.1274 31.2627 25.2814 31.2606 23.3929Z" fill="white"/>
<path d="M25.6329 7.12111C27.3049 5.1616 28.1286 2.64297 27.9291 0.100098C25.3748 0.36202 23.0153 1.55389 21.3208 3.43821C20.4923 4.35876 19.8578 5.4297 19.4534 6.58981C19.0491 7.74992 18.883 8.97645 18.9645 10.1993C20.2421 10.2121 21.5061 9.94177 22.6611 9.40858C23.8162 8.87539 24.8323 8.09326 25.6329 7.12111Z" fill="white"/>
<path d="M53.3186 11.5527H57.096C60.3602 11.5527 61.9481 13.4935 61.9481 17.0143C61.9481 20.5351 60.3441 22.5 57.096 22.5H53.3186V11.5527ZM55.1391 13.0845V20.9682H56.8955C59.0609 20.9682 60.0795 19.6609 60.0795 17.0384C60.0795 14.3998 59.0529 13.0845 56.8955 13.0845H55.1391ZM67.7065 13.8785C69.92 13.8785 71.4679 15.3141 71.4679 17.696V18.7948C71.4679 21.2569 69.92 22.6444 67.7065 22.6444C65.4609 22.6444 63.9291 21.2729 63.9291 18.8028V17.704C63.9291 15.3862 65.485 13.8785 67.7065 13.8785ZM67.7145 15.3141C66.4474 15.3141 65.7256 16.3727 65.7256 17.7922V18.7386C65.7256 20.1582 66.3993 21.2088 67.7145 21.2088C69.0138 21.2088 69.6794 20.1662 69.6794 18.7386V17.7922C69.6794 16.3727 68.9817 15.3141 67.7145 15.3141ZM84.5405 14.0228L82.311 22.5H80.4985L78.726 16.2444H78.6779L76.9376 22.5H75.117L72.7912 14.0228H74.708L76.0714 20.487H76.1516L77.8599 14.0228H79.536L81.2924 20.487H81.3726L82.7601 14.0228H84.5405ZM86.3049 22.5V14.0228H88.0533V15.5466H88.1415C88.3581 14.881 88.9756 13.8945 90.6919 13.8945C92.4002 13.8945 93.547 14.8409 93.547 16.7737V22.5H91.7666V17.295C91.7666 16.0038 91.0929 15.4103 90.0904 15.4103C88.7751 15.4103 88.0854 16.4208 88.0854 17.7922V22.5H86.3049ZM96.2418 22.5V10.9752H98.0222V22.5H96.2418ZM104.133 13.8785C106.347 13.8785 107.895 15.3141 107.895 17.696V18.7948C107.895 21.2569 106.347 22.6444 104.133 22.6444C101.888 22.6444 100.356 21.2729 100.356 18.8028V17.704C100.356 15.3862 101.912 13.8785 104.133 13.8785ZM104.141 15.3141C102.874 15.3141 102.153 16.3727 102.153 17.7922V18.7386C102.153 20.1582 102.826 21.2088 104.141 21.2088C105.441 21.2088 106.106 20.1662 106.106 18.7386V17.7922C106.106 16.3727 105.409 15.3141 104.141 15.3141ZM112.506 22.6283C110.862 22.6283 109.731 21.6178 109.731 20.0379C109.731 18.5381 110.774 17.5276 112.731 17.5276H114.872V16.7336C114.872 15.7632 114.255 15.306 113.276 15.306C112.314 15.306 111.881 15.707 111.744 16.2684H110.052C110.156 14.8489 111.223 13.8945 113.332 13.8945C115.145 13.8945 116.645 14.6484 116.645 16.7577V22.5H114.952V21.4013H114.872C114.495 22.0509 113.757 22.6283 112.506 22.6283ZM113.06 21.2489C114.07 21.2489 114.872 20.5592 114.872 19.6369V18.7226H113.012C111.977 18.7226 111.52 19.2439 111.52 19.9496C111.52 20.8318 112.258 21.2489 113.06 21.2489ZM122.13 13.9106C123.325 13.9106 124.24 14.4399 124.568 15.298H124.657V10.9752H126.437V22.5H124.705V21.1446H124.617C124.36 22.0028 123.341 22.6123 122.106 22.6123C120.157 22.6123 118.89 21.2248 118.89 18.9872V17.5356C118.89 15.298 120.182 13.9106 122.13 13.9106ZM122.628 15.3702C121.441 15.3702 120.703 16.2524 120.703 17.7922V18.7226C120.703 20.2704 121.449 21.1526 122.668 21.1526C123.871 21.1526 124.657 20.2785 124.657 18.8349V17.5516C124.657 16.2444 123.799 15.3702 122.628 15.3702ZM136.214 13.8785C138.427 13.8785 139.975 15.3141 139.975 17.696V18.7948C139.975 21.2569 138.427 22.6444 136.214 22.6444C133.968 22.6444 132.436 21.2729 132.436 18.8028V17.704C132.436 15.3862 133.992 13.8785 136.214 13.8785ZM136.222 15.3141C134.954 15.3141 134.233 16.3727 134.233 17.7922V18.7386C134.233 20.1582 134.906 21.2088 136.222 21.2088C137.521 21.2088 138.186 20.1662 138.186 18.7386V17.7922C138.186 16.3727 137.489 15.3141 136.222 15.3141ZM142.269 22.5V14.0228H144.017V15.5466H144.105C144.322 14.881 144.939 13.8945 146.656 13.8945C148.364 13.8945 149.511 14.8409 149.511 16.7737V22.5H147.73V17.295C147.73 16.0038 147.057 15.4103 146.054 15.4103C144.739 15.4103 144.049 16.4208 144.049 17.7922V22.5H142.269ZM156.4 14.079V11.9617H158.14V14.079H160.041V15.4745H158.14V19.9737C158.14 20.896 158.485 21.1526 159.44 21.1526C159.68 21.1526 160.001 21.1366 160.137 21.1206V22.484C159.993 22.508 159.399 22.5561 158.998 22.5561C156.937 22.5561 156.376 21.8183 156.376 20.1181V15.4745H155.085V14.079H156.4ZM162.287 22.5V10.9752H164.059V15.5466H164.147C164.332 14.9451 165.021 13.8945 166.722 13.8945C168.374 13.8945 169.553 14.8489 169.553 16.7817V22.5H167.78V17.303C167.78 16.0118 167.067 15.4103 166.056 15.4103C164.781 15.4103 164.059 16.4128 164.059 17.7922V22.5H162.287ZM175.528 22.6444C173.218 22.6444 171.782 21.2248 171.782 18.8349V17.688C171.782 15.282 173.354 13.8785 175.423 13.8785C177.549 13.8785 179.048 15.3542 179.048 17.688V18.6825H173.547V19.0995C173.547 20.3186 174.269 21.2168 175.52 21.2168C176.45 21.2168 177.092 20.7757 177.212 20.2464H178.952C178.848 21.2248 177.813 22.6444 175.528 22.6444ZM173.547 17.5196H177.308V17.4073C177.308 16.1321 176.562 15.282 175.431 15.282C174.301 15.282 173.547 16.1321 173.547 17.4073V17.5196Z" fill="white"/>
<path d="M55.9011 45.5H52.1958L59.7346 23.6053H63.8088L71.3316 45.5H67.482L65.5411 39.4369H57.8579L55.9011 45.5ZM61.7877 27.3908H61.6434L58.676 36.6459H64.7231L61.7877 27.3908ZM81.5575 45.7406C79.36 45.7406 77.6918 44.698 76.7936 43.1421H76.6653V51.1301H73.1044V28.5457H76.569V31.0319H76.6974C77.6277 29.4118 79.36 28.3211 81.6377 28.3211C85.4392 28.3211 88.1499 31.1923 88.1499 36.2609V37.7687C88.1499 42.8053 85.4713 45.7406 81.5575 45.7406ZM80.7394 42.8053C83.0011 42.8053 84.5409 40.9927 84.5409 37.5762V36.3893C84.5409 33.101 83.0973 31.2244 80.6753 31.2244C78.1891 31.2244 76.6332 33.2454 76.6332 36.3732V37.5762C76.6332 40.7842 78.2051 42.8053 80.7394 42.8053ZM99.6591 45.7406C97.4616 45.7406 95.7934 44.698 94.8952 43.1421H94.7668V51.1301H91.206V28.5457H94.6706V31.0319H94.7989C95.7293 29.4118 97.4616 28.3211 99.7393 28.3211C103.541 28.3211 106.252 31.1923 106.252 36.2609V37.7687C106.252 42.8053 103.573 45.7406 99.6591 45.7406ZM98.841 42.8053C101.103 42.8053 102.643 40.9927 102.643 37.5762V36.3893C102.643 33.101 101.199 31.2244 98.7769 31.2244C96.2907 31.2244 94.7348 33.2454 94.7348 36.3732V37.5762C94.7348 40.7842 96.3067 42.8053 98.841 42.8053ZM113.631 39.4208H117.192C117.352 41.3135 119.02 42.9336 122.116 42.9336C124.955 42.9336 126.639 41.6023 126.639 39.5331C126.639 37.8649 125.516 36.9667 123.175 36.4053L119.582 35.5071C116.759 34.8494 114.224 33.1652 114.224 29.6043C114.224 25.4179 117.881 23.1241 122.132 23.1241C126.383 23.1241 129.927 25.4179 130.008 29.5081H126.511C126.35 27.6474 124.923 26.1076 122.084 26.1076C119.582 26.1076 117.881 27.2946 117.881 29.3316C117.881 30.7592 118.876 31.7858 120.913 32.2509L124.49 33.1331C127.778 33.9351 130.28 35.491 130.28 39.2123C130.28 43.511 126.8 45.9331 121.843 45.9331C115.748 45.9331 113.711 42.3722 113.631 39.4208ZM134.62 28.5457V24.4234H138.116V28.5457H141.42V31.4008H138.116V40.4474C138.116 42.292 138.806 42.8053 140.715 42.8053C141.019 42.8053 141.308 42.8053 141.517 42.7732V45.5C141.228 45.5481 140.554 45.6123 139.833 45.6123C135.71 45.6123 134.571 44.1366 134.571 40.7361V31.4008H132.23V28.5457H134.62ZM151.037 28.257C155.913 28.257 158.56 31.6895 158.56 36.3091V37.6725C158.56 42.4524 155.929 45.7887 151.037 45.7887C146.145 45.7887 143.482 42.4524 143.482 37.6725V36.3091C143.482 31.7056 146.161 28.257 151.037 28.257ZM151.037 31.1121C148.39 31.1121 147.075 33.2775 147.075 36.3572V37.6564C147.075 40.688 148.374 42.9176 151.037 42.9176C153.7 42.9176 154.983 40.704 154.983 37.6564V36.3572C154.983 33.2614 153.683 31.1121 151.037 31.1121ZM161.568 45.5V28.5457H165.128V30.7752H165.257C165.69 29.7166 166.957 28.3051 169.315 28.3051C169.78 28.3051 170.181 28.3372 170.518 28.4013V31.5452C170.213 31.465 169.588 31.4168 168.994 31.4168C166.139 31.4168 165.177 33.1812 165.177 35.4589V45.5H161.568ZM179.156 45.7887C174.617 45.7887 171.729 42.7892 171.729 37.7687V36.0524C171.729 31.3206 174.552 28.257 179.011 28.257C183.535 28.257 186.262 31.4329 186.262 36.2128V37.8329H175.242V38.2339C175.242 41.089 176.782 42.9817 179.204 42.9817C181.016 42.9817 182.252 42.0835 182.685 40.6238H186.069C185.556 43.3667 183.342 45.7887 179.156 45.7887ZM175.242 35.3467H182.781V35.3146C182.781 32.9086 181.289 31.0158 179.028 31.0158C176.734 31.0158 175.242 32.9086 175.242 35.3146V35.3467Z" fill="white"/>
</svg>
