<svg width="136" height="45" viewBox="0 0 136 45" fill="none" xmlns="http://www.w3.org/2000/svg">
<path d="M14.7882 11.1207C14.7882 12.9457 14.2467 14.3997 13.1639 15.4825C11.9472 16.7722 10.3473 17.417 8.36415 17.417C6.46615 17.417 4.86015 16.76 3.54615 15.446C2.23215 14.132 1.57515 12.5138 1.57515 10.5915C1.57515 8.66917 2.23215 7.051 3.54615 5.737C4.86015 4.423 6.46615 3.766 8.36415 3.766C9.32532 3.766 10.2317 3.93633 11.0834 4.277C11.9351 4.61766 12.6347 5.09825 13.1822 5.71875L11.9777 6.92325C11.5762 6.43658 11.053 6.05941 10.4082 5.79175C9.77549 5.51191 9.09415 5.372 8.36415 5.372C6.94065 5.372 5.73615 5.86475 4.75065 6.85025C3.77732 7.84792 3.29065 9.095 3.29065 10.5915C3.29065 12.088 3.77732 13.3351 4.75065 14.3327C5.73615 15.3182 6.94065 15.811 8.36415 15.811C9.66599 15.811 10.7488 15.446 11.6127 14.716C12.4765 13.986 12.9753 12.9822 13.1092 11.7047H8.36415V10.1352H14.6969C14.7577 10.4759 14.7882 10.8044 14.7882 11.1207ZM24.4567 4.058V5.664H18.5072V9.80675H23.8727V11.3762H18.5072V15.519H24.4567V17.125H16.8282V4.058H24.4567ZM31.1725 5.664V17.125H29.4935V5.664H25.8435V4.058H34.8225V5.664H31.1725ZM42.2642 17.125H40.5852V4.058H42.2642V17.125ZM49.3512 5.664V17.125H47.6722V5.664H44.0222V4.058H53.0012V5.664H49.3512ZM71.2008 10.5915C71.2008 12.526 70.5559 14.1442 69.2663 15.446C67.9644 16.76 66.3706 17.417 64.4848 17.417C62.5868 17.417 60.9929 16.76 59.7033 15.446C58.4136 14.1442 57.7688 12.526 57.7688 10.5915C57.7688 8.657 58.4136 7.03883 59.7033 5.737C60.9929 4.423 62.5868 3.766 64.4848 3.766C66.3828 3.766 67.9766 4.42908 69.2663 5.75525C70.5559 7.05708 71.2008 8.66917 71.2008 10.5915ZM59.4843 10.5915C59.4843 12.1002 59.9588 13.3472 60.9078 14.3327C61.8689 15.3182 63.0613 15.811 64.4848 15.811C65.9083 15.811 67.0945 15.3182 68.0435 14.3327C69.0047 13.3594 69.4853 12.1123 69.4853 10.5915C69.4853 9.07067 69.0047 7.82358 68.0435 6.85025C67.0945 5.86475 65.9083 5.372 64.4848 5.372C63.0613 5.372 61.8689 5.86475 60.9078 6.85025C59.9588 7.83575 59.4843 9.08283 59.4843 10.5915ZM74.8612 17.125H73.1822V4.058H75.2262L81.5772 14.2232H81.6502L81.5772 11.7047V4.058H83.2562V17.125H81.5042L74.8612 6.467H74.7882L74.8612 8.9855V17.125Z" fill="white"/>
<path d="M105.87 38.4226H108.843V18.3266H105.87V38.4226ZM132.644 25.5654L129.237 34.2783H129.135L125.598 25.5654H122.396L127.7 37.7426L124.678 44.5168H127.776L135.95 25.5654H132.644ZM115.787 36.1399C114.812 36.1399 113.455 35.6496 113.455 34.4326C113.455 32.883 115.145 32.2882 116.606 32.2882C117.912 32.2882 118.529 32.5727 119.322 32.9601C119.091 34.8217 117.503 36.1399 115.787 36.1399ZM116.145 25.1265C113.993 25.1265 111.763 26.083 110.842 28.2034L113.48 29.3142C114.044 28.2034 115.094 27.8401 116.196 27.8401C117.734 27.8401 119.296 28.7709 119.322 30.4266V30.6324C118.784 30.3221 117.632 29.8576 116.222 29.8576C113.378 29.8576 110.482 31.4346 110.482 34.3812C110.482 37.0706 112.814 38.8036 115.427 38.8036C117.426 38.8036 118.529 37.8985 119.22 36.8375H119.322V38.3888H122.191V30.6838C122.191 27.1167 119.553 25.1265 116.145 25.1265ZM97.7747 28.0121H93.5469V21.1237H97.7747C99.997 21.1237 101.259 22.9804 101.259 24.5671C101.259 26.1248 99.997 28.0121 97.7747 28.0121ZM97.6983 18.3266H90.5759V38.4226H93.5469V30.8092H97.6983C100.993 30.8092 104.231 28.4011 104.231 24.5671C104.231 20.7331 100.993 18.3266 97.6983 18.3266ZM58.8588 36.1431C56.8054 36.1431 55.0865 34.4085 55.0865 32.0261C55.0865 29.618 56.8054 27.8562 58.8588 27.8562C60.8867 27.8562 62.4766 29.618 62.4766 32.0261C62.4766 34.4085 60.8867 36.1431 58.8588 36.1431ZM62.2727 26.6907H62.1691C61.5016 25.8885 60.2193 25.1635 58.6023 25.1635C55.214 25.1635 52.1092 28.1664 52.1092 32.0261C52.1092 35.8585 55.214 38.8373 58.6023 38.8373C60.2193 38.8373 61.5016 38.1123 62.1691 37.2828H62.2727V38.2683C62.2727 40.8838 60.8867 42.2823 58.6533 42.2823C56.8309 42.2823 55.7014 40.9609 55.2395 39.8469L52.6476 40.9352C53.3916 42.7485 55.3685 44.975 58.6533 44.975C62.1436 44.975 65.0955 42.9028 65.0955 37.8535V25.5766H62.2727V26.6907ZM67.1489 38.4226H70.1263V18.325H67.1489V38.4226ZM74.5134 31.793C74.437 29.1518 76.5414 27.8047 78.0547 27.8047C79.2367 27.8047 80.2372 28.3995 80.5701 29.2547L74.5134 31.793ZM83.753 29.5135C83.189 27.9864 81.4686 25.1635 77.9528 25.1635C74.4625 25.1635 71.5632 27.9333 71.5632 32.0004C71.5632 35.8328 74.437 38.8373 78.2857 38.8373C81.3921 38.8373 83.189 36.9211 83.933 35.8071L81.6231 34.2526C80.8537 35.3924 79.8007 36.1431 78.2857 36.1431C76.7723 36.1431 75.6939 35.4438 75.0009 34.0726L84.0604 30.29L83.753 29.5135ZM11.5763 27.2614V30.1614H18.4534C18.2479 31.793 17.7095 32.9842 16.8891 33.8121C15.887 34.8233 14.3211 35.9373 11.5763 35.9373C7.34049 35.9373 4.03019 32.4923 4.03019 28.2195C4.03019 23.945 7.34049 20.5016 11.5763 20.5016C13.8607 20.5016 15.5286 21.4083 16.76 22.5737L18.7879 20.5273C17.0675 18.8699 14.7847 17.6 11.5763 17.6C5.77614 17.6 0.899902 22.3664 0.899902 28.2195C0.899902 34.0726 5.77614 38.8373 11.5763 38.8373C14.7066 38.8373 17.0675 37.8005 18.9154 35.8585C20.8159 33.9423 21.4053 31.2497 21.4053 29.0731C21.4053 28.3995 21.3543 27.779 21.2508 27.2614H11.5763ZM29.2254 36.1431C27.172 36.1431 25.4006 34.4343 25.4006 32.0004C25.4006 29.5393 27.172 27.8562 29.2254 27.8562C31.2772 27.8562 33.0487 29.5393 33.0487 32.0004C33.0487 34.4343 31.2772 36.1431 29.2254 36.1431ZM29.2254 25.1635C25.477 25.1635 22.4232 28.0378 22.4232 32.0004C22.4232 35.9373 25.477 38.8373 29.2254 38.8373C32.9722 38.8373 36.026 35.9373 36.026 32.0004C36.026 28.0378 32.9722 25.1635 29.2254 25.1635ZM44.0612 36.1431C42.0078 36.1431 40.2364 34.4343 40.2364 32.0004C40.2364 29.5393 42.0078 27.8562 44.0612 27.8562C46.1146 27.8562 47.8845 29.5393 47.8845 32.0004C47.8845 34.4343 46.1146 36.1431 44.0612 36.1431ZM44.0612 25.1635C40.3144 25.1635 37.2606 28.0378 37.2606 32.0004C37.2606 35.9373 40.3144 38.8373 44.0612 38.8373C47.808 38.8373 50.8618 35.9373 50.8618 32.0004C50.8618 28.0378 47.808 25.1635 44.0612 25.1635Z" fill="white"/>
</svg>
